<svg width="128" height="128" viewBox="0 0 128 128" fill="none" xmlns="http://www.w3.org/2000/svg">
<path d="M60.3049 39.3832L72.631 40.2451L65.2856 50.5696L71.0202 54.6693L78.6579 43.8492L84.7159 55.627L90.965 52.3651L85.2139 41.125L97.3686 41.9749L97.8593 34.9559L85.5335 34.094L92.8846 23.684L87.15 19.5844L79.6036 30.3248L73.6257 18.6386L67.3765 21.9004L73.2074 33.2321L60.7958 32.3642L60.3049 39.3832Z" fill="#222222"/>
<path d="M29.1106 76.5319L61.9094 81.1415L63.2949 71.2848L40.3525 68.0606L47.3266 18.4372L37.4699 17.0519L29.1106 76.5319Z" fill="#222222"/>
<path d="M98.0407 101.787L34.1357 110.769L32.7504 100.912L96.6555 91.9307L98.0407 101.787Z" fill="#222222"/>
</svg>
