<svg width="128" height="128" xmlns="http://www.w3.org/2000/svg"><path d="M108.04 33.863c4.659-2.935 8.236-7.586 9.922-13.128a43.86 43.86 0 0 1-14.332 5.759C99.514 21.88 93.649 19 87.158 19c-12.463 0-22.569 10.624-22.569 23.73 0 1.86.2 3.67.585 5.408-18.757-.99-35.385-10.437-46.516-24.794-1.943 3.504-3.056 7.581-3.056 11.93 0 8.233 3.984 15.496 10.04 19.752a21.646 21.646 0 0 1-10.222-2.968c-.002.098-.002.197-.002.298 0 11.497 7.779 21.087 18.103 23.27a21.554 21.554 0 0 1-10.192.406c2.873 9.427 11.207 16.288 21.083 16.478-7.724 6.366-17.455 10.16-28.028 10.16-1.822 0-3.618-.113-5.384-.331C20.987 109.072 32.85 113 45.595 113c41.51 0 64.21-36.159 64.21-67.52 0-1.028-.022-2.05-.065-3.07 4.409-3.344 8.235-7.523 11.26-12.283a43.397 43.397 0 0 1-12.96 3.736z" fill="#222" fill-rule="evenodd"/></svg>