<svg height="512" viewBox="0 0 512 512" width="512" xmlns="http://www.w3.org/2000/svg"><g fill="none"><path d="m0 0h512v512h-512z" fill="#e4f6f2"/><path d="m338.272 168.912c-1.493632 2.554965-3.459161 4.802835-5.792 6.624-2.303684 1.556099-5.046686 2.330198-7.824 2.208-2.816 0-5.856-.88-9.104-2.672l-11.04-5.968c-4.51829-2.383731-9.22804-4.385374-14.08-5.984-5.825692-1.863937-11.916116-2.766422-18.032-2.672-11.648 0-20.32 2.48-26.032 7.456-5.696 4.96-8.56 11.68-8.56 20.16 0 5.392 1.728 9.856 5.152 13.424 3.44 3.552 7.952 6.624 13.536 9.2 6.204665 2.803816 12.599163 5.167 19.136 7.072 7.168 2.16 14.496 4.544 21.984 7.184s14.816 5.728 21.984 9.28c7.184 3.568 13.552 8.112 19.136 13.632s10.08 12.224 13.52 20.144c3.44 7.904 5.152 17.44 5.152 28.608 0 12.4-2.144 23.984-6.432 34.784-4.176692 10.617573-10.538177 20.238841-18.672 28.24-8.16 8.032-18.224 14.352-30.176 18.944-11.968 4.608-25.552 6.912-40.768 6.912-8.554528-.022618-17.086153-.885427-25.472-2.576-8.567714-1.69727-16.972422-4.13303-25.12-7.28-7.914432-3.035664-15.548746-6.756455-22.816-11.12-6.756092-4.012817-12.999233-8.832178-18.592-14.352l18.4-29.072c1.472-2.08 3.408-3.84 5.808-5.248 2.36257-1.400016 5.061829-2.130143 7.808-2.112 3.68 0 7.392 1.168 11.136 3.488 3.744 2.336 7.968 4.912 12.704 7.728 4.72 2.832 10.144 5.408 16.272 7.728 6.144 2.336 13.376 3.504 21.712 3.504 11.296 0 20.064-2.496 26.32-7.456 6.24-4.96 9.376-12.848 9.376-23.648 0-6.24-1.712-11.344-5.152-15.264-3.767112-4.171312-8.374851-7.497609-13.52-9.76-6.152001-2.778653-12.519622-5.052804-19.04-6.8-7.12-1.968-14.4-4.144-21.904-6.544-7.472-2.384-14.768-5.328-21.888-8.832-7.087866-3.476034-13.527713-8.140864-19.04-13.792-5.873844-6.153623-10.473936-13.407194-13.536-21.344-3.424-8.528-5.152-19.04-5.152-31.552.089726-20.845624 8.737903-40.739323 23.92-55.024 7.856-7.472 17.488-13.456 28.896-17.936s24.48-6.72 39.2-6.72c8.208 0 16.208.64 24 1.936 7.792 1.28 15.184 3.2 22.176 5.696 6.787514 2.422032 13.346596 5.441887 19.6 9.024 6.08 3.488 11.488 7.456 16.272 11.872z" fill="#222"/></g></svg>