<svg width="128" height="128" xmlns="http://www.w3.org/2000/svg"><path d="M63 119c-29.225 0-53-24.673-53-55S33.776 9 63 9c29.225 0 53 24.673 53 55s-23.775 55-53 55zm44.608-47.644c-1.549-.509-14.012-4.366-28.197-2.01 5.92 16.886 8.33 30.638 8.794 33.496 10.156-7.126 17.386-18.416 19.404-31.486h-.001zM82.63 107.27c-.673-4.122-3.3-18.487-9.656-35.626-.1.034-.2.068-.3.105-25.532 9.233-34.698 27.608-35.513 29.337 7.676 6.21 17.321 9.916 27.787 9.916 6.27 0 12.248-1.33 17.682-3.733v.001zM30.691 95.906c1.026-1.822 13.45-23.17 36.798-31 .59-.198 1.185-.385 1.783-.56-1.15-2.69-2.374-5.349-3.67-7.972-22.607 7.021-44.544 6.727-46.524 6.686-.015.479-.023.957-.024 1.435 0 12.066 4.408 23.082 11.637 31.411zM19.055 55.673c2.024.027 20.675.112 41.85-5.724-7.501-13.837-15.59-25.47-16.784-27.17-12.665 6.2-22.132 18.316-25.067 32.894zM52.25 17.978c1.251 1.74 9.474 13.359 16.892 27.502 16.097-6.261 22.911-15.766 23.725-16.97-7.994-7.36-18.506-11.838-30.009-11.838a43.63 43.63 0 0 0-10.608 1.306zm46.403 17.018c-.955 1.34-8.54 11.431-25.278 18.523 1.43 3.03 2.757 6.109 3.978 9.23 15.063-1.967 30.03 1.183 31.522 1.511-.1-11.088-3.918-21.27-10.222-29.264z" fill="#444" fill-rule="evenodd"/></svg>