<?xml version="1.0" encoding="UTF-8" standalone="no"?>
<svg width="140px" height="125px" viewBox="0 0 140 125" version="1.1" xmlns="http://www.w3.org/2000/svg" xmlns:xlink="http://www.w3.org/1999/xlink" xmlns:sketch="http://www.bohemiancoding.com/sketch/ns">
    <!-- Generator: Sketch Beta 3.4 (15009) - http://www.bohemiancoding.com/sketch -->
    <title>dribbble</title>
    <desc>Created with Sketch Beta.</desc>
    <defs></defs>
    <g id="Page-1" stroke="none" stroke-width="1" fill="none" fill-rule="evenodd" sketch:type="MSPage">
        <g id="Desktop-HD-Copy-3" sketch:type="MSArtboardGroup" transform="translate(-487.000000, -2716.000000)" fill="#444444">
            <g id="Connect" sketch:type="MSLayerGroup" transform="translate(0.000000, 2499.000000)">
                <g id="Group" transform="translate(140.000000, 217.000000)" sketch:type="MSShapeGroup">
                    <g id="Group-+-Dribbble" transform="translate(347.000000, 0.000000)">
                        <path d="M69.7151522,122.580002 C37.695502,122.580002 11.6457201,95.5341186 11.6457201,62.2902116 C11.6457201,29.0458833 37.695502,2 69.7151522,2 C101.734802,2 127.784584,29.0458833 127.784584,62.2902116 C127.784584,95.5341186 101.734802,122.580002 69.7151522,122.580002 L69.7151522,122.580002 L69.7151522,122.580002 Z M118.591374,70.3525996 C116.894439,69.7964208 103.239126,65.5681973 87.6959877,68.1510582 C94.1834067,86.6600171 96.8238475,101.734993 97.3316713,104.867712 C108.459214,97.0559273 116.380536,84.6809473 118.591374,70.3525996 L118.591374,70.3525996 L118.591374,70.3525996 Z M91.2243483,109.72216 C90.4863219,105.204049 87.6067621,89.4578664 80.6431316,70.6699754 C80.5341096,70.7083181 80.4250875,70.7453967 80.3160655,70.784582 C52.3395522,80.9061949 42.2969611,101.04914 41.4045204,102.943519 C49.8146181,109.752075 60.3832709,113.814709 71.8496331,113.814709 C78.720453,113.814709 85.2690703,112.355582 91.2243483,109.72216 L91.2243483,109.72216 L91.2243483,109.72216 Z M34.3164402,97.266119 C35.439894,95.2693525 49.0526529,71.8681263 74.6335184,63.2835896 C75.2799502,63.0665956 75.9316507,62.8626633 76.5882146,62.6709502 C75.3427696,59.7455335 73.9866814,56.8167461 72.5669632,53.9313575 C47.7970757,61.6281148 23.7611618,61.3062052 21.5908532,61.2602783 C21.5754524,61.7827493 21.5653202,62.3069058 21.5653202,62.8335903 C21.5653202,76.0601139 26.3947127,88.1363585 34.3164402,97.266119 L34.3164402,97.266119 L34.3164402,97.266119 Z M21.5653202,53.1632219 C23.7838578,53.1935589 44.2188022,53.2858341 67.4202315,46.8889343 C59.201429,31.7208408 50.337816,18.9683333 49.0303621,17.1063981 C35.1537619,23.9018928 24.7812676,37.1831915 21.5653202,53.1632219 L21.5653202,53.1632219 L21.5653202,53.1632219 Z M57.9371873,11.8426902 C59.3082711,13.7488669 68.3165714,26.4857846 76.4445897,41.9896921 C94.0818423,35.1263605 101.548433,24.7068548 102.440469,23.3876154 C93.6810141,15.3192296 82.1631805,10.410951 69.5603953,10.410951 C65.5581924,10.410951 61.6670378,10.9094052 57.9371873,11.8426902 L57.9371873,11.8426902 L57.9371873,11.8426902 Z M108.778976,30.4972925 C107.733337,31.965689 99.4217242,43.0281711 81.0829209,50.8020349 C82.2367713,53.2551209 83.3436084,55.7499202 84.373441,58.2611521 C84.7386041,59.1514597 85.0940402,60.0371324 85.4417759,60.9185916 C101.945848,58.7638198 118.34414,62.217185 119.97947,62.5761732 C119.870448,50.421558 115.687082,39.2604805 108.778976,30.4972925 L108.778976,30.4972925 L108.778976,30.4972925 Z" id="Dribbble"></path>
                    </g>
                </g>
            </g>
        </g>
    </g>
</svg>