<?xml version="1.0" encoding="UTF-8" standalone="no"?>
<svg width="140px" height="125px" viewBox="0 0 140 125" version="1.1" xmlns="http://www.w3.org/2000/svg" xmlns:xlink="http://www.w3.org/1999/xlink" xmlns:sketch="http://www.bohemiancoding.com/sketch/ns">
    <!-- Generator: Sketch Beta 3.4 (15009) - http://www.bohemiancoding.com/sketch -->
    <title>@</title>
    <desc>Created with Sketch Beta.</desc>
    <defs></defs>
    <g id="Page-1" stroke="none" stroke-width="1" fill="none" fill-rule="evenodd" sketch:type="MSPage">
        <g id="Desktop-HD-Copy-3" sketch:type="MSArtboardGroup" transform="translate(-670.000000, -2716.000000)" fill="#444444">
            <g id="Connect" sketch:type="MSLayerGroup" transform="translate(0.000000, 2499.000000)">
                <g id="Group" transform="translate(140.000000, 217.000000)" sketch:type="MSShapeGroup">
                    <g id="Group-+-@" transform="translate(530.000000, 0.000000)">
                        <path d="M81.618,80.612 L81.618,86.618 C81.618,90.622 80.2833326,93.702 77.614,95.858 C74.9446674,98.014 71.8646674,99.092 68.374,99.092 C64.986,99.092 62.368,98.322 60.52,96.782 C58.672,95.242 57.748,93.0346674 57.748,90.16 C57.748,86.9773326 59.057,84.5133326 61.675,82.768 C64.293,81.0226674 68.528,80.15 74.38,80.15 C76.228,80.15 77.845,80.2526674 79.231,80.458 C80.617,80.6633326 81.4126674,80.7146674 81.618,80.612 L81.618,80.612 Z M19.402,115.416 L31.876,105.406 C30.952,104.482 29.797,103.044667 28.411,101.094 C27.025,99.1433326 25.6646674,96.6536674 24.33,93.625 C22.9953326,90.5963326 21.8403326,87.1313326 20.865,83.23 C19.8896674,79.3286674 19.402,75.0166674 19.402,70.294 C19.402,61.4646674 20.9676674,53.9956674 24.099,47.887 C27.2303326,41.7783326 31.2856674,36.8246674 36.265,33.026 C41.2443326,29.2273326 46.7626674,26.481 52.82,24.787 C58.8773326,23.093 64.832,22.246 70.684,22.246 C77.46,22.246 83.8766674,23.093 89.934,24.787 C95.9913326,26.481 101.304333,29.176 105.873,32.872 C110.441667,36.568 114.060667,41.3163326 116.73,47.117 C119.399333,52.9176674 120.734,59.8733326 120.734,67.984 C120.734,73.22 120.349,77.7373326 119.579,81.536 C118.809,85.3346674 117.808,88.5173326 116.576,91.084 C115.344,93.6506674 113.958,95.55 112.418,96.782 C110.878,98.014 109.389333,98.63 107.952,98.63 C104.358667,98.63 102.562,96.1146674 102.562,91.084 L102.562,65.52 C102.562,56.7933326 99.79,50.0173326 94.246,45.192 C88.702,40.3666674 81.156,37.954 71.608,37.954 C67.1933326,37.954 63.3176674,38.2363326 59.981,38.801 C56.6443326,39.3656674 53.667,40.0843326 51.049,40.957 C48.431,41.8296674 46.121,42.8306674 44.119,43.96 C42.117,45.0893326 40.346,46.27 38.806,47.502 L48.046,61.054 C50.3046674,59.514 53.0253326,58.128 56.208,56.896 C59.3906674,55.664 63.5486674,55.048 68.682,55.048 C72.07,55.048 75.073,55.818 77.691,57.358 C80.309,58.898 81.618,61.3106674 81.618,64.596 L81.618,67.368 C80.7966674,67.1626674 79.1796674,67.0086674 76.767,66.906 C74.3543326,66.8033326 71.9673326,66.752 69.606,66.752 C64.8833326,66.752 60.4943326,67.291 56.439,68.369 C52.3836674,69.447 48.893,71.064 45.967,73.22 C43.041,75.376 40.7566674,78.071 39.114,81.305 C37.4713326,84.539 36.65,88.2606674 36.65,92.47 C36.65,96.6793326 37.4456674,100.221333 39.037,103.096 C40.6283326,105.970667 42.6303326,108.306333 45.043,110.103 C47.4556674,111.899667 50.0736674,113.183 52.897,113.953 C55.7203326,114.723 58.4153326,115.108 60.982,115.108 C66.7313326,115.108 71.4283326,114.363667 75.073,112.875 C78.7176674,111.386333 82.1313326,109.102 85.314,106.022 C87.3673326,109.204667 89.8313326,111.489 92.706,112.875 C95.5806674,114.261 99.328,114.954 103.948,114.954 C107.644,114.954 111.468333,114.184 115.421,112.644 C119.373667,111.104 122.992667,108.537333 126.278,104.944 C129.563333,101.350667 132.284,96.5766674 134.44,90.622 C136.596,84.6673326 137.674,77.224 137.674,68.292 C137.674,58.8466674 136.185333,50.3253326 133.208,42.728 C130.230667,35.1306674 125.918667,28.6883326 120.272,23.401 C114.625333,18.1136674 107.644,14.0583326 99.328,11.235 C91.012,8.41166745 81.5666674,7 70.992,7 C62.06,7 53.436,8.309 45.12,10.927 C36.804,13.545 29.4633326,17.4976674 23.098,22.785 C16.7326674,28.0723326 11.625,34.72 7.775,42.728 C3.925,50.736 2,60.13 2,70.91 C2,76.454 2.59033255,81.6643326 3.771,86.541 C4.95166745,91.4176674 6.44033255,95.781 8.237,99.631 C10.0336674,103.481 11.933,106.740667 13.935,109.41 C15.937,112.079333 17.7593326,114.081333 19.402,115.416 L19.402,115.416 Z" id="@"></path>
                    </g>
                </g>
            </g>
        </g>
    </g>
</svg>