<svg width="128" height="128" xmlns="http://www.w3.org/2000/svg"><path d="M73.66 77.824v5.207c0 3.472-1.152 6.142-3.453 8.012-2.303 1.869-4.959 2.804-7.969 2.804-2.921 0-5.179-.668-6.773-2.003-1.593-1.335-2.39-3.249-2.39-5.742 0-2.76 1.129-4.896 3.386-6.409 2.258-1.513 5.91-2.27 10.957-2.27 1.593 0 2.988.09 4.183.267 1.195.178 1.882.223 2.058.134zM20.006 108l10.757-8.679c-.797-.801-1.793-2.047-2.988-3.739-1.195-1.69-2.368-3.85-3.52-6.475-1.15-2.627-2.147-5.631-2.988-9.013-.84-3.383-1.261-7.121-1.261-11.216 0-7.656 1.35-14.131 4.05-19.428 2.7-5.296 6.198-9.59 10.492-12.885a41.865 41.865 0 0 1 14.276-7.143c5.224-1.469 10.359-2.203 15.405-2.203 5.844 0 11.378.734 16.6 2.203 5.224 1.469 9.806 3.805 13.746 7.01 3.94 3.204 7.061 7.321 9.363 12.35 2.302 5.03 3.453 11.06 3.453 18.093 0 4.54-.332 8.456-.996 11.75-.664 3.294-1.528 6.053-2.59 8.278-1.063 2.226-2.258 3.873-3.586 4.94-1.328 1.069-2.612 1.603-3.851 1.603-3.099 0-4.648-2.18-4.648-6.543V64.74c0-7.567-2.39-13.442-7.172-17.625-4.78-4.184-11.288-6.276-19.522-6.276-3.807 0-7.149.245-10.026.734-2.878.49-5.445 1.113-7.703 1.87-2.258.757-4.25 1.625-5.976 2.603-1.727.98-3.254 2.003-4.582 3.071l7.968 11.75c1.948-1.335 4.295-2.536 7.039-3.605 2.745-1.068 6.33-1.602 10.757-1.602 2.922 0 5.511.668 7.769 2.003s3.386 3.427 3.386 6.276v2.403c-.708-.178-2.102-.312-4.183-.4-2.08-.09-4.14-.134-6.175-.134-4.073 0-7.858.467-11.355 1.402-3.497.934-6.507 2.336-9.03 4.206a19.616 19.616 0 0 0-5.91 7.01c-1.417 2.804-2.125 6.03-2.125 9.68 0 3.65.686 6.72 2.058 9.213 1.372 2.493 3.099 4.517 5.18 6.075 2.08 1.559 4.337 2.67 6.773 3.339 2.434.667 4.758 1.001 6.972 1.001 4.958 0 9.008-.645 12.151-1.936 3.144-1.291 6.087-3.271 8.832-5.942 1.77 2.76 3.895 4.74 6.374 5.942 2.48 1.202 5.71 1.802 9.695 1.802 3.187 0 6.485-.667 9.894-2.002 3.409-1.336 6.53-3.561 9.363-6.677 2.832-3.115 5.179-7.254 7.038-12.417C121.071 81.34 122 74.886 122 67.142c0-8.19-1.284-15.578-3.851-22.165-2.568-6.587-6.287-12.173-11.156-16.757-4.87-4.584-10.89-8.1-18.061-10.548C81.76 15.224 73.615 14 64.496 14c-7.703 0-15.14 1.135-22.311 3.405-7.171 2.27-13.502 5.696-18.99 10.281C17.704 32.27 13.3 38.034 9.98 44.977 6.66 51.92 5 60.065 5 69.412c0 4.807.509 9.324 1.527 13.552 1.018 4.229 2.303 8.012 3.852 11.35 1.55 3.338 3.187 6.165 4.913 8.479 1.727 2.315 3.298 4.05 4.715 5.207z" fill="#222" fill-rule="evenodd"/></svg>