<?xml version="1.0" encoding="UTF-8" standalone="no"?>
<svg width="140px" height="125px" viewBox="0 0 140 125" version="1.1" xmlns="http://www.w3.org/2000/svg" xmlns:xlink="http://www.w3.org/1999/xlink" xmlns:sketch="http://www.bohemiancoding.com/sketch/ns">
    <!-- Generator: Sketch Beta 3.4 (15009) - http://www.bohemiancoding.com/sketch -->
    <title>github</title>
    <desc>Created with Sketch Beta.</desc>
    <defs></defs>
    <g id="Page-1" stroke="none" stroke-width="1" fill="none" fill-rule="evenodd" sketch:type="MSPage">
        <g id="Desktop-HD-Copy-3" sketch:type="MSArtboardGroup" transform="translate(-314.000000, -2716.000000)" fill="#444444">
            <g id="Connect" sketch:type="MSLayerGroup" transform="translate(0.000000, 2499.000000)">
                <g id="Group" transform="translate(140.000000, 217.000000)" sketch:type="MSShapeGroup">
                    <g id="Group-+-GitHub" transform="translate(174.000000, 0.000000)">
                        <path d="M70.5765436,2 C37.6776399,2 11,29.7591495 11,64.0055306 C11,91.401198 28.0704931,114.642491 51.7420766,122.842401 C54.7195226,123.416374 55.812634,121.496285 55.812634,119.859589 C55.812634,118.382044 55.7573865,113.496598 55.7317359,108.315438 C39.1574838,112.066286 35.6601193,100.99959 35.6601193,100.99959 C32.9500318,93.8336531 29.0452169,91.9269122 29.0452169,91.9269122 C23.6398403,88.0785197 29.4526673,88.1575822 29.4526673,88.1575822 C35.4341965,88.5949929 38.5852775,94.5482959 38.5852775,94.5482959 C43.8989038,104.026554 52.5224477,101.286063 55.9221424,99.7027598 C56.4568594,95.6962423 58.0008299,92.9598586 59.7046235,91.4114658 C46.4718591,89.844591 32.5603396,84.5268682 32.5603396,60.7680755 C32.5603396,53.9984779 34.8876408,48.4671837 38.6997188,44.1249072 C38.081144,42.5631663 36.041919,36.256649 39.2768579,27.7158461 C39.2768579,27.7158461 44.2797169,26.0503998 55.663663,34.0726759 C60.4159352,32.6988368 65.5125177,32.0098636 70.5755571,31.9852207 C75.6385965,32.0088368 80.7391252,32.69781 85.5002764,34.0726759 C96.8713972,26.0503998 101.86735,27.7158461 101.86735,27.7158461 C105.110182,36.256649 103.070957,42.5631663 102.452382,44.1249072 C106.272352,48.4671837 108.583869,53.9984779 108.583869,60.7680755 C108.583869,84.5833414 94.6466985,89.8271356 81.3803909,91.3621801 C83.5172856,93.2863764 85.4213514,97.0598136 85.4213514,102.844724 C85.4213514,111.141152 85.3532786,117.818339 85.3532786,119.860615 C85.3532786,121.51066 86.4256722,123.444097 89.4445538,122.835213 C113.104299,114.627089 130.153087,91.3929837 130.153087,64.0065574 C130.152101,29.7591495 103.478407,2 70.5765436,2 Z M33.5646603,91.0253945 C33.4334475,91.3344569 32.9677899,91.4268676 32.543568,91.2153498 C32.1114536,91.013073 31.8687592,90.5931177 32.008851,90.2840552 C32.1371042,89.9667785 32.6037483,89.8784749 33.0348762,90.0899927 C33.4679772,90.2922695 33.7146178,90.716332 33.5646603,91.0253945 Z M35.9777925,93.8274924 C35.6936624,94.1016442 35.1372411,93.9743228 34.7613608,93.5410192 C34.370682,93.1087425 34.2986629,92.5306622 34.5867392,92.2524033 C34.8797483,91.9782515 35.4184115,92.1065997 35.8081037,92.5388765 C36.1987825,92.9762871 36.2747478,93.5492335 35.9777925,93.8274924 Z M38.3267981,97.3976261 C37.9617699,97.6625368 37.363913,97.4150814 36.9949385,96.8626708 C36.6299104,96.3112869 36.6299104,95.6490101 37.0038176,95.3851262 C37.372792,95.1202155 37.9617699,95.3594566 38.3356771,95.9057066 C38.6997188,96.4663315 38.6997188,97.1286082 38.3267981,97.3976261 Z M41.5449654,100.848653 C41.2184131,101.223429 40.5228865,101.122804 40.0138202,100.610438 C39.4929151,100.11142 39.3478904,99.4008848 39.6744426,99.0261081 C40.0059277,98.6513313 40.7054006,98.7560635 41.2174266,99.2632956 C41.7353719,99.7633402 41.893222,100.476956 41.5449654,100.848653 Z M45.9844972,102.851911 C45.8394724,103.337581 45.170583,103.55834 44.4957742,103.350929 C43.8209653,103.138385 43.3809584,102.569545 43.517104,102.079769 C43.6571959,101.589992 44.3300316,101.361019 45.0097733,101.581778 C45.682609,101.793295 46.124589,102.357001 45.9844972,102.851911 Z M50.8600896,103.222581 C50.8768612,103.73392 50.3046549,104.157983 49.5963029,104.167224 C48.8840047,104.184679 48.3068656,103.769858 48.2999596,103.266733 C48.2999596,102.75026 48.8593406,102.331331 49.5716388,102.317983 C50.2799908,102.304635 50.8600896,102.715349 50.8600896,103.222581 Z M54.2864216,103.566554 C53.5948412,103.699009 52.9545621,103.389947 52.866758,102.896063 C52.7809271,102.384724 53.2821009,101.872358 53.9726947,101.739902 C54.6771004,101.612581 55.3075139,101.912402 55.3972911,102.419635 C55.4821355,102.917626 54.9898408,103.429992 54.2864216,103.566554 Z" id="GitHub"></path>
                    </g>
                </g>
            </g>
        </g>
    </g>
</svg>