<svg width="128" height="128" xmlns="http://www.w3.org/2000/svg"><path d="M64.5 10C36.06 10 13 34.1 13 63.83c0 23.782 14.756 43.958 35.219 51.076 2.574.499 3.518-1.168 3.518-2.588 0-1.283-.047-5.524-.07-10.023-14.327 3.256-17.35-6.35-17.35-6.35-2.343-6.221-5.718-7.877-5.718-7.877-4.673-3.34.352-3.273.352-3.273 5.17.38 7.894 5.549 7.894 5.549 4.594 8.229 12.048 5.849 14.987 4.475.463-3.479 1.797-5.854 3.27-7.199-11.439-1.36-23.465-5.976-23.465-26.602 0-5.877 2.013-10.678 5.308-14.448-.535-1.356-2.298-6.83.499-14.246 0 0 4.324-1.446 14.165 5.52 4.108-1.193 8.514-1.791 12.89-1.813 4.377.02 8.786.619 12.901 1.812 9.83-6.965 14.149-5.518 14.149-5.518 2.803 7.414 1.04 12.889.505 14.245 3.302 3.77 5.301 8.57 5.301 14.448 0 20.675-12.048 25.228-23.516 26.56 1.847 1.67 3.493 4.946 3.493 9.968 0 7.202-.059 12.999-.059 14.772 0 1.433.928 3.111 3.538 2.582C101.263 107.775 116 87.605 116 63.83 116 34.098 92.941 10 64.5 10zM32.506 87.285c-.114.27-.516.35-.883.165-.374-.175-.583-.54-.462-.807.11-.276.514-.354.887-.17.374.176.588.544.458.812zm2.086 2.433c-.246.238-.726.127-1.052-.249-.337-.375-.4-.876-.15-1.119.253-.238.718-.126 1.055.25.337.379.404.876.147 1.118zm2.03 3.099c-.315.23-.832.015-1.151-.464-.316-.479-.316-1.054.008-1.283.319-.23.828-.022 1.151.452.315.487.315 1.062-.008 1.296v-.001zm2.782 2.997c-.283.324-.883.237-1.323-.208-.45-.433-.576-1.05-.294-1.375.287-.326.891-.234 1.334.206.447.434.584 1.054.283 1.377zm3.838 1.738c-.126.422-.703.613-1.288.434-.582-.185-.963-.678-.845-1.104.12-.425.703-.624 1.29-.432.582.183.964.673.842 1.102h.001zm4.214.322c.015.444-.48.812-1.092.82-.616.016-1.115-.345-1.12-.781 0-.45.484-.813 1.099-.824.612-.011 1.113.345 1.113.786v-.001zm2.962.3c-.597.114-1.15-.154-1.228-.582-.073-.445.36-.89.957-1.005.609-.11 1.154.15 1.231.59.074.433-.352.877-.96.996z" fill="#222" fill-rule="evenodd"/></svg>