<svg width="128" height="128" xmlns="http://www.w3.org/2000/svg"><path d="M100.712 55.88h-8.184c.597 2.437.949 4.984.949 7.617 0 16.827-12.948 30.463-28.922 30.463-15.972 0-28.921-13.636-28.921-30.462 0-2.634.353-5.181.95-7.618H28.4v41.888c0 2.1 1.62 3.804 3.619 3.804h65.074c2 0 3.619-1.703 3.619-3.804V55.879zm-.084-25.393c0-2.102-1.62-3.807-3.619-3.807H86.165c-1.997 0-3.616 1.705-3.616 3.807v11.425c0 2.102 1.618 3.807 3.616 3.807h10.844c2 0 3.618-1.705 3.618-3.807V30.487h.001zM63.576 47.12c-9.984 0-18.077 8.522-18.077 19.037 0 10.514 8.092 19.041 18.077 19.041 9.984 0 18.078-8.526 18.078-19.04 0-10.516-8.094-19.038-18.078-19.038zm36.58 66.88H27.844C21.856 114 17 108.884 17 102.573V26.42C17 20.113 21.855 15 27.844 15h72.312C106.146 15 111 20.113 111 26.42v76.153c0 6.311-4.854 11.427-10.844 11.427z" fill="#444" fill-rule="evenodd"/></svg>