<svg width="128" height="128" xmlns="http://www.w3.org/2000/svg"><path d="M96.768 97.027a61.45 61.45 0 0 0 .142-4.176c0-33.217-27.06-60.144-60.442-60.144-1.41 0-2.81.048-4.197.142V45.35a49.65 49.65 0 0 1 3.358-.113c26.89 0 48.69 21.69 48.69 48.449 0 1.124-.04 2.237-.115 3.341h12.564zm-23.6 0c.157-1.374.237-2.77.237-4.185 0-20.3-16.537-36.755-36.937-36.755-1.418 0-2.82.08-4.197.234V68.9c1.25-.19 2.513-.285 3.778-.284 13.676 0 24.764 11.032 24.764 24.642 0 1.282-.098 2.54-.288 3.768h12.643zm-32.502.836c5.1 0 9.234-4.114 9.234-9.189s-4.134-9.189-9.234-9.189-9.234 4.114-9.234 9.189 4.134 9.189 9.234 9.189zM104.11 16c3.792 0 6.89 3.067 6.89 6.845v81.3c0 3.783-3.098 6.855-6.89 6.855H24.858A6.86 6.86 0 0 1 18 104.144v-81.3C18 19.067 21.073 16 24.858 16h79.252z" fill="#222" fill-rule="evenodd"/></svg>