<svg width="128" height="128" xmlns="http://www.w3.org/2000/svg"><path d="M90.474 105.306v-36.01h8.511L98.992 114H22l.002-44.743h8.52v36.05h59.952zm-51.902-19.14h42.884v8.694H38.571v-8.693h.001zm42.532-2.477l-42.533-2.37.464-8.681 42.532 2.37-.464 8.679v.002zm-1.136-9.267L38.57 64.176l2.009-8.448 41.394 10.244-2.008 8.448.002.002zm3.163-11.468L45.2 43.178l3.876-7.74 37.93 19.776-3.876 7.74zm7.405-9.285L58.459 25.074l5.604-6.546L96.14 47.123l-5.605 6.546zm8.415-7.825L75.031 9.882 82.08 5 106 40.962l-7.049 4.882z" fill="#444" fill-rule="evenodd"/></svg>