<?xml version="1.0" encoding="UTF-8" standalone="no"?>
<svg width="140px" height="125px" viewBox="0 0 140 125" version="1.1" xmlns="http://www.w3.org/2000/svg" xmlns:xlink="http://www.w3.org/1999/xlink" xmlns:sketch="http://www.bohemiancoding.com/sketch/ns">
    <!-- Generator: Sketch Beta 3.4 (15009) - http://www.bohemiancoding.com/sketch -->
    <title>Group</title>
    <desc>Created with Sketch Beta.</desc>
    <defs></defs>
    <g id="Page-1" stroke="none" stroke-width="1" fill="none" fill-rule="evenodd" sketch:type="MSPage">
        <g id="Desktop-HD-Copy-3" sketch:type="MSArtboardGroup" transform="translate(-1166.000000, -2716.000000)" fill="#444444">
            <g id="Connect" sketch:type="MSLayerGroup" transform="translate(0.000000, 2499.000000)">
                <g id="Group" transform="translate(140.000000, 217.000000)" sketch:type="MSShapeGroup">
                    <g id="Group-+-Instagram" transform="translate(1026.000000, 0.000000)">
                        <path d="M114.243668,52.0484378 L104.444504,52.0484378 C105.158509,54.9731081 105.580149,58.0289531 105.580149,61.1886884 C105.580149,81.3769937 90.0749165,97.7391965 70.9469567,97.7391965 C51.8199913,97.7391965 36.3137642,81.3769937 36.3137642,61.1886884 C36.3137642,58.0289531 36.7373936,54.9731081 37.451398,52.0484378 L27.6512398,52.0484378 L27.6512398,102.307223 C27.6512398,104.826826 29.5903883,106.872101 31.9849881,106.872101 L109.90992,106.872101 C112.30452,106.872101 114.243668,104.827875 114.243668,102.307223 L114.243668,52.0484378 L114.243668,52.0484378 Z M114.143482,21.5818658 C114.143482,19.0601641 112.204333,17.0138394 109.809733,17.0138394 L96.8243992,17.0138394 C94.4327827,17.0138394 92.4946287,19.0601641 92.4946287,21.5818658 L92.4946287,35.2901429 C92.4946287,37.8118446 94.4317883,39.8581693 96.8243992,39.8581693 L109.809733,39.8581693 C112.204333,39.8581693 114.143482,37.8118446 114.143482,35.2901429 L114.143482,21.5818658 L114.143482,21.5818658 Z M69.7749634,41.5380583 C57.8188698,41.5380583 48.1280994,51.7633856 48.1280994,64.3802894 C48.1280994,76.9950945 57.8188698,87.2256688 69.7749634,87.2256688 C81.7310571,87.2256688 91.4238164,76.9950945 91.4238164,64.3802894 C91.4238164,51.7633856 81.7310571,41.5380583 69.7749634,41.5380583 L69.7749634,41.5380583 Z M113.578757,121.78338 L26.985334,121.78338 C19.8144622,121.78338 14,115.645455 14,108.071955 L14,16.70303 C14,9.13477665 19.8144622,3 26.985334,3 L113.578757,3 C120.750623,3 126.564091,9.13477665 126.564091,16.70303 L126.564091,108.071955 C126.563096,115.645455 120.750623,121.78338 113.578757,121.78338 L113.578757,121.78338 Z" id="Instagram"></path>
                    </g>
                </g>
            </g>
        </g>
    </g>
</svg>