<?xml version="1.0" encoding="UTF-8" standalone="no"?>
<svg width="140px" height="125px" viewBox="0 0 140 125" version="1.1" xmlns="http://www.w3.org/2000/svg" xmlns:xlink="http://www.w3.org/1999/xlink" xmlns:sketch="http://www.bohemiancoding.com/sketch/ns">
    <!-- Generator: Sketch Beta 3.4 (15009) - http://www.bohemiancoding.com/sketch -->
    <title>linkedin</title>
    <desc>Created with Sketch Beta.</desc>
    <defs></defs>
    <g id="Page-1" stroke="none" stroke-width="1" fill="none" fill-rule="evenodd" sketch:type="MSPage">
        <g id="Desktop-HD-Copy-3" sketch:type="MSArtboardGroup" transform="translate(-1001.000000, -2716.000000)" fill="#444444">
            <g id="Connect" sketch:type="MSLayerGroup" transform="translate(0.000000, 2499.000000)">
                <g id="Group" transform="translate(140.000000, 217.000000)" sketch:type="MSShapeGroup">
                    <g id="Group-+-LinkedIn" transform="translate(861.000000, 0.000000)">
                        <path d="M117.792937,6 L23.3855519,6 C18.87736,6 15.2154157,9.67075955 15.2154157,14.1944495 L15.2154157,111.520121 C15.2154157,116.050129 18.87736,119.727207 23.3855519,119.727207 L117.792937,119.727207 C122.31036,119.727207 126,116.050129 126,111.520121 L126,14.1944495 C126,9.67075955 122.31036,6 117.792937,6 L117.792937,6 Z M48.727442,102.310002 L32.2794654,102.310002 L32.2794654,48.0415181 L48.727442,48.0415181 L48.727442,102.310002 L48.727442,102.310002 Z M41.8128296,39.5743756 C36.5322444,39.5743756 32.2794654,35.1928408 32.2794654,29.7909485 C32.2794654,24.3985332 36.5322444,20.0138394 41.8128296,20.0138394 C47.0687966,20.0138394 51.3369619,24.3985332 51.3369619,29.7909485 C51.3369619,35.1928408 47.0687966,39.5743756 41.8128296,39.5743756 L41.8128296,39.5743756 Z M110.803006,103.662055 L94.3858017,103.662055 L94.3858017,77.2717574 C94.3858017,70.9790268 94.2688657,62.8793474 85.8494712,62.8793474 C77.2977543,62.8793474 75.9929943,69.7343803 75.9929943,76.8137023 L75.9929943,103.658896 L59.581945,103.658896 L59.581945,49.3935707 L75.3313825,49.3935707 L75.3313825,56.8077468 L75.5560228,56.8077468 C77.7470348,52.539936 83.1107061,48.0415181 91.1054382,48.0415181 C107.728819,48.0415181 110.803006,59.2780859 110.803006,73.894785 L110.803006,103.662055 L110.803006,103.662055 Z" id="LinkedIn"></path>
                    </g>
                </g>
            </g>
        </g>
    </g>
</svg>