<?xml version="1.0" encoding="UTF-8" standalone="no"?>
<svg width="140px" height="125px" viewBox="0 0 140 125" version="1.1" xmlns="http://www.w3.org/2000/svg" xmlns:xlink="http://www.w3.org/1999/xlink" xmlns:sketch="http://www.bohemiancoding.com/sketch/ns">
    <!-- Generator: Sketch Beta 3.4 (15009) - http://www.bohemiancoding.com/sketch -->
    <title>twitter</title>
    <desc>Created with Sketch Beta.</desc>
    <defs></defs>
    <g id="Page-1" stroke="none" stroke-width="1" fill="none" fill-rule="evenodd" sketch:type="MSPage">
        <g id="Desktop-HD-Copy-3" sketch:type="MSArtboardGroup" transform="translate(-140.000000, -2716.000000)" fill="#444444">
            <g id="Connect" sketch:type="MSLayerGroup" transform="translate(0.000000, 2499.000000)">
                <g id="Group" transform="translate(140.000000, 217.000000)" sketch:type="MSShapeGroup">
                    <g id="Twitter-+-Group">
                        <path d="M116.38476,26.6064374 C121.588575,23.3253321 125.585878,18.1297275 127.467506,11.9384226 C122.596653,14.9772129 117.202405,17.1831322 111.460466,18.372035 C106.862973,13.2190704 100.311986,10 93.0619133,10 C79.1416776,10 67.8549809,21.8702285 67.8549809,36.5117581 C67.8549809,38.5897423 68.077973,40.6134525 68.5079893,42.5538116 C47.5588248,41.4482674 28.9858141,30.8929253 16.5534317,14.8525102 C14.3836931,18.7681149 13.1403303,23.3221071 13.1403303,28.1810822 C13.1403303,37.3795232 17.5903865,45.4943918 24.3539213,50.2486845 C20.2220844,50.1110594 16.3353539,48.9182836 12.9369954,46.9327001 C12.9341299,47.0431844 12.9341299,47.1543167 12.9341299,47.2661046 C12.9341299,60.1113652 21.62292,70.8262966 33.1541071,73.2635375 C31.039042,73.8696153 28.8121728,74.19333 26.5134229,74.19333 C24.889194,74.19333 23.310426,74.0266277 21.7709653,73.7177719 C24.9788837,84.2504941 34.287507,91.9156494 45.3180365,92.1288722 C36.6912985,99.2402871 25.8229483,103.478966 14.0128563,103.478966 C11.9782612,103.478966 9.97193411,103.352967 8,103.108075 C19.1552354,110.631085 32.4046465,115.020311 46.6394122,115.020311 C93.0031422,115.020311 118.357511,74.6217271 118.357511,39.5854425 C118.357511,38.4359624 118.332939,37.2929396 118.284412,36.1550933 C123.208707,32.4178172 127.481841,27.7488046 130.861158,22.4317298 C126.341478,24.5407276 121.48291,25.9654655 116.38476,26.6064374 Z" id="Twitter"></path>
                    </g>
                </g>
            </g>
        </g>
    </g>
</svg>