<svg width="128" height="128" xmlns="http://www.w3.org/2000/svg"><path d="M104.11 16H24.858C21.073 16 18 19.066 18 22.845v81.3A6.86 6.86 0 0 0 24.858 111h79.252c3.792 0 6.89-3.072 6.89-6.856v-81.3c0-3.777-3.098-6.844-6.89-6.844zM46.132 96.451H32.325V51.119h13.807v45.332zm-5.805-52.406c-4.432 0-8.003-3.66-8.003-8.172 0-4.504 3.57-8.167 8.003-8.167 4.413 0 7.996 3.663 7.996 8.167 0 4.513-3.583 8.172-7.996 8.172zM98.243 97.58H84.46V75.536c0-5.257-.098-12.023-7.167-12.023-7.178 0-8.273 5.726-8.273 11.64v22.425H55.244v-45.33h13.222v6.194h.188c1.839-3.566 6.342-7.323 13.053-7.323 13.955 0 16.536 9.386 16.536 21.596V97.58z" fill="#222" fill-rule="evenodd"/></svg>