<svg width="32" height="32" xmlns="http://www.w3.org/2000/svg"><g fill-rule="nonzero" fill="none"><path fill="#E4F6F2" d="M0 0h32v32H0z"/><path d="M21.142 10.557a1.46 1.46 0 0 1-.362.414.81.81 0 0 1-.489.138c-.176 0-.366-.055-.569-.167l-.69-.373a5.726 5.726 0 0 0-.88-.374 3.52 3.52 0 0 0-1.127-.167c-.728 0-1.27.155-1.627.466-.356.31-.535.73-.535 1.26 0 .337.108.616.322.839.215.222.497.414.846.575a9.06 9.06 0 0 0 1.196.442c.448.135.906.284 1.374.449.468.165.926.358 1.374.58.449.223.847.507 1.196.852s.63.764.845 1.259c.215.494.322 1.09.322 1.788 0 .775-.134 1.499-.402 2.174a5.089 5.089 0 0 1-1.167 1.765c-.51.502-1.139.897-1.886 1.184-.748.288-1.597.432-2.548.432a8.165 8.165 0 0 1-1.592-.161 9.459 9.459 0 0 1-1.57-.455 9.103 9.103 0 0 1-1.426-.695 6.059 6.059 0 0 1-1.162-.897l1.15-1.817c.092-.13.213-.24.363-.328a.945.945 0 0 1 .488-.132c.23 0 .462.073.696.218.234.146.498.307.794.483.295.177.634.338 1.017.483.384.146.836.219 1.357.219.706 0 1.254-.156 1.645-.466.39-.31.586-.803.586-1.478 0-.39-.107-.709-.322-.954a2.488 2.488 0 0 0-.845-.61 7.788 7.788 0 0 0-1.19-.425c-.445-.123-.9-.259-1.369-.409-.467-.149-.923-.333-1.368-.552a4.319 4.319 0 0 1-1.19-.862 4.036 4.036 0 0 1-.846-1.334c-.214-.533-.322-1.19-.322-1.972a4.75 4.75 0 0 1 1.495-3.439c.491-.467 1.093-.841 1.806-1.121.713-.28 1.53-.42 2.45-.42.513 0 1.013.04 1.5.121.487.08.949.2 1.386.356a7.61 7.61 0 0 1 1.225.564c.38.218.718.466 1.017.742l-.966 1.805z" fill="#222"/></g></svg>